<?xml version="1.0" standalone="no"?>
<!DOCTYPE svg PUBLIC "-//W3C//DTD SVG 20010904//EN"
 "http://www.w3.org/TR/2001/REC-SVG-20010904/DTD/svg10.dtd">
<svg version="1.0" xmlns="http://www.w3.org/2000/svg"
 width="1080.000000pt" height="1080.000000pt" viewBox="0 0 1080.000000 1080.000000"
 preserveAspectRatio="xMidYMid meet">

<g transform="translate(0.000000,1080.000000) scale(0.100000,-0.100000)"
fill="#000000" stroke="none">
<path d="M5565 7468 c-6 -18 -493 -1576 -771 -2468 -80 -256 -166 -530 -190
-610 -25 -80 -66 -210 -91 -290 -24 -80 -60 -192 -78 -250 -18 -58 -57 -179
-85 -270 -28 -91 -58 -185 -66 -209 -8 -25 -14 -46 -14 -48 0 -2 217 -2 482
-1 l482 3 189 605 c243 779 334 1069 358 1150 11 36 35 112 54 170 19 58 118
375 220 705 263 846 268 863 418 1340 25 77 48 150 51 163 l7 22 -481 0 c-375
0 -482 -3 -485 -12z"/>
<path d="M3950 7038 c-58 -32 -143 -80 -190 -105 -202 -108 -326 -176 -335
-183 -5 -4 -62 -35 -125 -68 -63 -33 -153 -81 -200 -107 -127 -71 -354 -196
-445 -245 -44 -23 -84 -46 -90 -50 -5 -4 -53 -30 -105 -57 -137 -73 -210 -113
-252 -140 -21 -13 -39 -23 -41 -23 -2 0 -46 -23 -98 -51 -52 -28 -128 -70
-169 -92 -41 -22 -93 -51 -115 -64 -22 -13 -48 -26 -57 -29 -17 -6 -18 -35
-18 -413 l0 -406 38 -21 c20 -11 118 -65 217 -120 188 -105 374 -207 485 -267
67 -36 364 -197 460 -250 53 -29 175 -95 405 -220 61 -33 144 -77 185 -99 41
-22 93 -51 115 -63 44 -25 155 -84 285 -153 47 -24 94 -51 105 -58 11 -8 22
-14 25 -14 3 0 5 24 6 53 1 84 7 158 13 152 2 -3 4 -48 2 -100 -2 -57 1 -95 7
-95 6 0 10 171 11 463 l2 462 -28 17 c-15 9 -93 52 -173 95 -80 44 -257 141
-395 217 -137 76 -349 192 -470 259 -121 66 -232 128 -247 137 l-27 16 37 20
c128 67 269 150 271 159 2 6 5 12 8 15 4 3 3 -1 -1 -7 -4 -7 -4 -13 -1 -13 5
0 170 88 295 158 225 125 520 287 670 369 24 13 48 29 52 36 10 16 10 947 1
946 -5 0 -55 -28 -113 -61z m77 -3100 c-2 -13 -4 -3 -4 22 0 25 2 35 4 23 2
-13 2 -33 0 -45z m-202 -58 c3 -5 1 -10 -4 -10 -6 0 -11 5 -11 10 0 6 2 10 4
10 3 0 8 -4 11 -10z m170 -80 c-3 -5 -13 -10 -21 -10 -8 0 -14 5 -14 10 0 6 9
10 21 10 11 0 17 -4 14 -10z m20 -30 c3 -5 1 -10 -4 -10 -6 0 -11 5 -11 10 0
6 2 10 4 10 3 0 8 -4 11 -10z"/>
<path d="M6730 7090 c0 -5 5 -10 11 -10 5 0 7 5 4 10 -3 6 -8 10 -11 10 -2 0
-4 -4 -4 -10z"/>
<path d="M6768 7071 c11 -7 10 -10 -3 -15 -23 -8 -27 -8 -20 4 3 6 2 10 -4 10
-7 0 -10 -153 -11 -457 0 -251 -2 -459 -5 -461 -4 -4 78 -51 460 -260 66 -36
136 -74 155 -85 19 -11 134 -74 255 -140 121 -65 225 -123 230 -127 10 -7 146
-80 214 -115 l34 -17 -44 -25 c-40 -23 -178 -99 -334 -183 -33 -18 -78 -43
-100 -55 -22 -12 -110 -61 -195 -107 -85 -47 -184 -101 -220 -121 -36 -20
-150 -83 -255 -140 l-190 -104 -3 -476 c-1 -262 1 -477 4 -477 4 0 29 13 56
30 26 16 51 30 53 30 5 0 240 128 275 150 8 5 41 23 73 40 50 27 118 64 422
230 86 47 259 141 340 185 39 21 106 58 150 83 44 24 127 69 185 99 58 31 110
59 115 63 11 8 266 148 405 223 131 70 254 138 268 149 9 8 12 103 12 413 l0
402 -37 19 c-21 10 -60 32 -88 48 -51 29 -285 159 -385 213 -163 88 -203 110
-290 158 -52 28 -185 101 -295 160 -110 60 -240 131 -290 158 -49 27 -124 67
-165 89 -41 23 -118 64 -170 93 -52 29 -140 76 -195 105 -55 29 -124 66 -153
82 -29 16 -58 26 -64 22 -6 -4 -8 -3 -5 3 4 6 -24 27 -65 48 -40 20 -82 43
-93 51 -11 8 -24 14 -30 14 -5 0 -4 -4 3 -9z m71 -50 c15 -15 17 -21 7 -21 -8
0 -22 10 -30 22 -11 15 -16 18 -16 8 0 -13 -2 -13 -10 0 -7 10 -10 -25 -12
-110 l-2 -125 -6 95 c-3 52 -7 76 -8 52 -3 -68 -22 -39 -22 33 0 41 4 65 13
68 23 10 65 -1 86 -22z m81 -47 c0 -3 -5 -2 -11 2 -6 3 -15 0 -20 -7 -6 -10
-8 -8 -6 8 1 17 5 20 19 12 10 -5 18 -12 18 -15z m100 -54 c0 -5 -7 -7 -15 -4
-8 4 -15 8 -15 10 0 2 7 4 15 4 8 0 15 -4 15 -10z"/>
<path d="M4055 3730 c3 -5 8 -10 11 -10 2 0 4 5 4 10 0 6 -5 10 -11 10 -5 0
-7 -4 -4 -10z"/>
</g>
</svg>
